<svg xmlns="http://www.w3.org/2000/svg" viewBox="0 0 56.23 75.65"><title>arrow-right</title><g id="33249a16-eec3-4d55-875d-087e0a1680c3" data-name="Layer 2"><g id="81e00115-3167-4ece-8a20-c3ce09232c1b" data-name="Layer 1"><path d="M9.88,13.08c20.16.19,37,8.85,41.67,20.49A17.47,17.47,0,0,0,52.85,27c0-14.79-19.17-26.8-43-27Z" style="fill:#b6b6b6"/><path d="M53.89,34C50,42.82,38.81,49.9,24.43,52.72l.66-11.52L0,60.72,23.13,75.65l.55-9.7c14.69-2.72,26.18-9.85,30.18-18.82h0l0-.09a18.2,18.2,0,0,0,.85-2.36c2.25-7.32,1.67-16.35,0-22.08l0,0A17,17,0,0,1,53.89,34" style="fill:#b6b6b6"/></g></g></svg>