<svg xmlns="http://www.w3.org/2000/svg" viewBox="0 0 56.23 75.65"><title>arrow-left</title><g id="71397a96-28ed-4d3e-bedb-26d0e78d0779" data-name="Layer 2"><g id="61dd6d94-de8f-4c65-8682-a48de7ba5b66" data-name="Layer 1"><path d="M46.34,13.08c-20.16.19-37,8.85-41.67,20.49A17.47,17.47,0,0,1,3.38,27c0-14.79,19.17-26.8,43-27Z" style="fill:#b6b6b6"/><path d="M2.33,34C6.23,42.82,17.41,49.9,31.79,52.72L31.14,41.2,56.23,60.72,33.1,75.65,32.55,66C17.85,63.24,6.36,56.11,2.37,47.13h0l0-.09a18.2,18.2,0,0,1-.85-2.36c-2.25-7.32-1.67-16.35,0-22.08l0,0A17,17,0,0,0,2.33,34" style="fill:#b6b6b6"/></g></g></svg>