<svg xmlns="http://www.w3.org/2000/svg" xmlns:xlink="http://www.w3.org/1999/xlink" viewBox="0 0 62 62"><defs><clipPath id="81a8c8d9-a06b-425d-97cd-c8e2a786cb3c"><rect width="62" height="62" style="fill:none"/></clipPath></defs><title>machine</title><g id="7885697d-a895-40be-ba25-307ebc14ac06" data-name="Layer 2"><g id="07de2a20-dd0d-40f7-a74a-fa2f7ef898fd" data-name="Layer 1"><g style="clip-path:url(#81a8c8d9-a06b-425d-97cd-c8e2a786cb3c)"><path d="M60,42.41V37h2V8H56V3a3,3,0,0,0-3-3H33a3,3,0,0,0-3,3V4a2,2,0,0,0-2,2V8H24v6H0V44H6a5,5,0,0,0-1,3V57a5,5,0,0,0,10,0h7v5h6V46H39V62h6V60l2.67,2h9.75L62,57.41V51H58V44.41Zm-2-.83L56.59,43H52.41L51,41.59V37h7ZM45,51V34.31l2-2.91V37h2v5.41l2,2V51Zm4-16V32h7V30H49V28.49L54.15,21H60v9H58v2h2v3ZM60,19H55.53l.47-.69V14H49V10H60ZM54,3V8H47v6H43V8H39V6a2,2,0,0,0-2-2V2H53a1,1,0,0,1,1,1M37,30H30V24h7Zm-9-8v8H26V20H41V30H39V22ZM32,3a1,1,0,0,1,1-1h2V4H32ZM30,6h7V8H30ZM41,18H26V10H41ZM11,16v2.31L14.22,23H2V16ZM2,35H14V33H2V25H15.6L18,28.49V33H16v2h2v7H2ZM22,47H15a5,5,0,0,0-1-3h6V31.4l2,2.91Zm-9,0v4H7V47a3,3,0,0,1,6,0M10,60a3,3,0,0,1-3-3V53h6v4a3,3,0,0,1-3,3m5-11h7v6H15ZM41,60V44H26V60H24V38H39V36H24V33.69l-11-16V16H24V32H43V16H54v1.69l-11,16V36H41v2h2V60Zm19-3.41L56.59,60H48.33L45,57.5V53H60ZM53,45h3v6H53Z" style="fill:#394679"/><rect x="9" y="46" width="2" height="2" style="fill:#394679"/><rect x="9" y="56" width="2" height="2" style="fill:#394679"/><path d="M30,17a3,3,0,1,0-3-3,3,3,0,0,0,3,3m0-4a1,1,0,1,1-1,1,1,1,0,0,1,1-1" style="fill:#394679"/><path d="M37,17a3,3,0,1,0-3-3,3,3,0,0,0,3,3m0-4a1,1,0,1,1-1,1,1,1,0,0,1,1-1" style="fill:#394679"/></g></g></g></svg>