<svg xmlns="http://www.w3.org/2000/svg" xmlns:xlink="http://www.w3.org/1999/xlink" viewBox="0 0 72.14 90"><defs><clipPath id="bcd50651-19b3-44e6-a0f2-3214b0ccc777" transform="translate(0 0)"><rect width="72.14" height="90" style="fill:none"/></clipPath></defs><title>microscope</title><g id="9e3c4068-2290-456d-802a-5ad5e426a31e" data-name="Layer 2"><g id="346590c6-46ae-4520-9a17-3f98db7f81f0" data-name="Layer 1"><g style="clip-path:url(#bcd50651-19b3-44e6-a0f2-3214b0ccc777)"><path d="M4.63,90H66.55a4.63,4.63,0,0,0,4.63-4.62V81.17a4.63,4.63,0,0,0-4.62-4.62H65l-7.55-10A31.08,31.08,0,0,0,41,9c-2.14,0-5.26.3-7,.49V9.12A4.11,4.11,0,0,0,30,5h-.5V1.5A1.5,1.5,0,0,0,28,0H19.91a1.5,1.5,0,0,0-1.5,1.5V5h-.5a4.11,4.11,0,0,0-4.1,4.11V41.84a4.11,4.11,0,0,0,3.28,4v4.72a1.5,1.5,0,0,0,1.5,1.5H29.32a1.5,1.5,0,0,0,1.5-1.5V45.86a4.11,4.11,0,0,0,3.28-4V21.33a41.07,41.07,0,0,1,7-1,19.72,19.72,0,0,1,9.5,37,7.83,7.83,0,0,0-5.77-2.51,8,8,0,0,0-.84,0,4.58,4.58,0,0,0-.5,0H8.23a4.81,4.81,0,1,0,0,9.62H33.59L24.52,76.54H4.63A4.63,4.63,0,0,0,0,81.17v4.21A4.63,4.63,0,0,0,4.63,90M21.4,3h5.09V5H21.4Zm6.41,46.08H20.08V45.94h7.74Zm3.28-7.24a1.11,1.11,0,0,1-1.1,1.1h-5v-1h-2v1h-5a1.11,1.11,0,0,1-1.1-1.1V9.12A1.11,1.11,0,0,1,17.91,8h5V9h2V8h5a1.11,1.11,0,0,1,1.1,1.11ZM63.77,40.1A22.75,22.75,0,0,0,41,17.38a40.75,40.75,0,0,0-7,.89V12.52c1.53-.17,4.84-.5,7-.5A28.08,28.08,0,0,1,55.65,64.09l-3.25-4.32A22.87,22.87,0,0,0,63.77,40.1M8.23,61.49a1.81,1.81,0,0,1-1.29-3.08,1.84,1.84,0,0,1,1.29-.54H38.58l-.13.16-2.6,3.46H8.23Zm32.62-1.66a4.91,4.91,0,0,1,7.85,0L61.26,76.54h-33ZM3,81.17a1.63,1.63,0,0,1,1.62-1.62H66.55a1.63,1.63,0,0,1,1.63,1.63v4.21A1.63,1.63,0,0,1,66.55,87H4.63A1.63,1.63,0,0,1,3,85.38Z" transform="translate(0 0)" style="fill:#394679"/><path d="M44.77,60.06A2.93,2.93,0,1,1,41.84,63a2.93,2.93,0,0,1,2.93-2.93" transform="translate(0 0)" style="fill:#394679"/><rect x="22.95" y="32.54" width="2" height="4.7" style="fill:#394679"/><rect x="22.95" y="13.72" width="2" height="4.7" style="fill:#394679"/><rect x="22.95" y="23.13" width="2" height="4.7" style="fill:#394679"/></g></g></g></svg>