<svg xmlns="http://www.w3.org/2000/svg" xmlns:xlink="http://www.w3.org/1999/xlink" viewBox="0 0 121.63 201.79"><defs><clipPath id="d24b6d9d-7dc5-4d73-a013-c36ae568bff0" transform="translate(-65.56 -14.14)"><rect x="33.46" y="33.95" width="163.22" height="162.24" transform="translate(-47.66 115.56) rotate(-45.17)" style="fill:none"/></clipPath></defs><title>phone-call</title><g id="c5a27ff7-d479-4bb8-b5a3-f79c0b0393ae" data-name="Layer 2"><g id="76d567f7-685a-4a93-92f4-a2aa35a82b01" data-name="Layer 1"><g style="clip-path:url(#d24b6d9d-7dc5-4d73-a013-c36ae568bff0)"><path d="M103.4,16.78C148,3.06,148,46.13,136,71.22c-6,13-12.5,14.58-22,13.12-19-1.92-18.93,63.19.1,61.1,9-1,16-.07,22.06,12.92,12.06,25,12.13,68.06-33,55.23-50.1-14.8-50.37-182.07.18-196.82M163.1,77.11c-4-4,2-10,6-6a61.66,61.66,0,0,1,.14,87.14c-4,4-10-2-6-6,21-21.13,20.95-54.18-.12-75.12M149.6,94.7c-4-4,2-10,6-6,14.55,14.46,15.09,38,.59,52.58-4,4-10-2-6-6,11-11.07,10.47-29.59-.57-40.56m-30.16-71c-20-.91-30,12.15-37,36.22-12,40.12-10.3,134.76,23.77,144.63,15.53,4.44,28,1.88,27-16.14-.52-10.51-5.06-34-13.58-33.49-10,0-13,4.06-23.05-10.92C88.06,131.53,88,99.48,96.5,85.92c16-24.11,22,.9,31-19.17,4-7,14.46-41.63-8.08-43" transform="translate(-65.56 -14.14)" style="fill:#fff"/></g></g></g></svg>