<svg xmlns="http://www.w3.org/2000/svg" xmlns:xlink="http://www.w3.org/1999/xlink" viewBox="0 0 229.4 230.14"><defs><clipPath id="e70f27f6-8a89-43a7-b964-1fb652afdde6"><rect width="229.4" height="230.14" style="fill:none"/></clipPath></defs><title>phone-call</title><g id="1b88501b-0156-4fac-bc4a-f43fafe24455" data-name="Layer 2"><g id="7a4adc37-501a-4f4a-a4d9-4bb945814452" data-name="Layer 1"><g style="clip-path:url(#e70f27f6-8a89-43a7-b964-1fb652afdde6)"><path d="M5,28.37c31-58,74-15,87,22,7,19,2,27-9,35-21,17,44,82,61,61,8-10,16-16,35-9,37,13,80,56,22,88-65,35-232-132-196-197m120,1c-8,0-8-12,0-12a87.06,87.06,0,0,1,87,87c0,8-12,8-12,0,0-42-33-75-75-75m4,31c-8,0-8-12,0-12,29,0,53,23,53,52,0,8-12,8-12,0,0-22-19-40-41-40m-101-41c-21,19-18,42-1,73,28,52,124,145,168,121,20-11,30-26,11-43-11-10-39-29-47-20-10,10-9,17-34,12-21-4-53-36-58-58-8-40,23-21,12-50-3-11-27-56-51-35" style="fill:#fff"/></g></g></g></svg>