<svg xmlns="http://www.w3.org/2000/svg" viewBox="0 0 59.18 64"><title>robot</title><g id="7e2efe49-2cc1-4f5b-ba50-c70cb0aa3d72" data-name="Layer 2"><g id="3f0ade10-7057-47d9-9c7a-baf7a09627f8" data-name="Layer 1"><path d="M38.7,47.7a1.08,1.08,0,0,1-1,1H31.5a1,1,0,0,1-1-1,.94.94,0,0,1,1-1h6.2a1,1,0,0,1,1,1" style="fill:#394679"/><path d="M23.3,40.7H36a1,1,0,0,0,0-2H23.3a.94.94,0,0,0-1,1,1,1,0,0,0,1,1" style="fill:#394679"/><path d="M23.3,37H36a1,1,0,1,0,0-2H23.3a.94.94,0,0,0-1,1,1,1,0,0,0,1,1" style="fill:#394679"/><path d="M39.8,31.4H19.6a.94.94,0,0,0-1,1V43.5a.94.94,0,0,0,1,1H39.8a.94.94,0,0,0,1-1V32.4a1,1,0,0,0-1-1m-1,11H20.6V33.3H38.8Z" style="fill:#394679"/><path d="M23.7,11c-1.9,0-3.4,2-3.4,4.6s1.5,4.6,3.4,4.6,3.4-2,3.4-4.6S25.6,11,23.7,11m0,7.1c-.6,0-1.4-1.1-1.4-2.6s.7-2.6,1.4-2.6,1.4,1.1,1.4,2.6-.7,2.6-1.4,2.6" style="fill:#394679"/><path d="M35.7,11c-1.9,0-3.4,2-3.4,4.6s1.5,4.6,3.4,4.6,3.4-2,3.4-4.6S37.6,11,35.7,11m0,7.1c-.6,0-1.4-1.1-1.4-2.6s.7-2.6,1.4-2.6,1.4,1.1,1.4,2.6-.8,2.6-1.4,2.6" style="fill:#394679"/><path d="M58.8,48.7l-1.9-1.2c.2-7.8-3.6-10.5-5.2-11.3a5.11,5.11,0,0,0-4.1-4.6V30.3a2.69,2.69,0,0,0-2.7-2.7H37.4V25.5H42A2.48,2.48,0,0,0,44.5,23V20h2.9a2,2,0,0,0,1.4-.6,1.6,1.6,0,0,0,.4-1.5l-.8-5.4a2,2,0,0,0-1.6-1.6l1.4-5.7a2.45,2.45,0,0,0,2.4-2.5,2.7,2.7,0,0,0-5.4,0,2.75,2.75,0,0,0,1.2,2.2L45,11h-.4V8a2.48,2.48,0,0,0-2.5-2.5H17.3A2.48,2.48,0,0,0,14.8,8v3h-.1L13.2,4.9a2.75,2.75,0,0,0,1.2-2.2A2.7,2.7,0,0,0,9,2.7a2.68,2.68,0,0,0,2.2,2.6l1.4,5.6a1.83,1.83,0,0,0-1.8,1.6L10.1,18a2,2,0,0,0,.4,1.5,1.82,1.82,0,0,0,1.4.6h2.9v3a2.48,2.48,0,0,0,2.5,2.5h4.6v2.1H14.4a2.69,2.69,0,0,0-2.7,2.7v1.3a5.11,5.11,0,0,0-4.1,4.6c-1.6.8-5.4,3.5-5.2,11.3L.5,48.8a1,1,0,0,0-.5.8v2.9a1,1,0,0,0,1,1,.94.94,0,0,0,1-1V50.1l1.3-.8,1.3.8v2.4a.94.94,0,0,0,1,1,1,1,0,0,0,1-1V49.6a.89.89,0,0,0-.5-.8L4.3,47.6c-.2-5.9,2.1-8.3,3.5-9.2a5.11,5.11,0,0,0,3.8,3.3v8.1a2.69,2.69,0,0,0,2.7,2.7h2.4v5.4a2.43,2.43,0,0,0-2.4,2.4V63a1,1,0,0,0,1,1h9.1a1,1,0,0,0,1-1V60.2a2.38,2.38,0,0,0-2-2.4V52.4h13v5.4h-.1a2.43,2.43,0,0,0-2.4,2.4V63a.94.94,0,0,0,1,1H44a.94.94,0,0,0,1-1V60.2a2.37,2.37,0,0,0-2-2.4V52.4h1.8a2.69,2.69,0,0,0,2.7-2.7V41.6a5.1,5.1,0,0,0,3.8-3.3c1.4.9,3.7,3.3,3.5,9.2L53,48.7a1,1,0,0,0-.5.8v2.9a1,1,0,0,0,2,0V50l1.3-.8,1.3.8v2.4a1,1,0,0,0,2,0V49.5c.2-.3,0-.6-.3-.8M48,2a.68.68,0,0,1,.7.7.7.7,0,0,1-1.4,0A.68.68,0,0,1,48,2M46.6,13l.7,5.1H44.6V13ZM11.7,2a.68.68,0,0,1,.7.7.7.7,0,0,1-1.4,0,.68.68,0,0,1,.7-.7m.4,16.1.7-5.1h2v5.1Zm4.7,5V8a.47.47,0,0,1,.5-.5H42.1a.47.47,0,0,1,.5.5V23.1a.47.47,0,0,1-.5.5H17.3c-.3-.1-.5-.3-.5-.5m7.1,2.4H35.5v2.1H23.9ZM9.6,36.7a3.16,3.16,0,0,1,2.1-3v6a3.26,3.26,0,0,1-2.1-3M23.4,62H16.3V60.2a.43.43,0,0,1,.4-.4H23a.43.43,0,0,1,.4.4Zm-1.9-4.2H18.9V52.4h2.6ZM43.1,62H36V60.2a.43.43,0,0,1,.4-.4h6.3a.43.43,0,0,1,.4.4Zm-2-4.2H38.5V52.4h2.6Zm4.5-8a.68.68,0,0,1-.7.7H14.4a.68.68,0,0,1-.7-.7V30.3a.68.68,0,0,1,.7-.7H44.9a.68.68,0,0,1,.7.7Zm2-10.1v-6a3.16,3.16,0,0,1,2.1,3,3,3,0,0,1-2.1,3" style="fill:#394679"/></g></g></svg>