<svg xmlns="http://www.w3.org/2000/svg" xmlns:xlink="http://www.w3.org/1999/xlink" viewBox="0 0 41.26 47.69"><defs><clipPath id="b96f1b1b-9092-465a-abbe-2952c827cf1a" transform="translate(0 0)"><rect width="41.26" height="47.69" style="fill:none"/></clipPath></defs><title>shield</title><g id="59a0d92f-ed1a-4619-9273-47fad43d6ed6" data-name="Layer 2"><g id="ad57d137-b097-4014-83ac-3e4213226a0c" data-name="Layer 1"><g style="clip-path:url(#b96f1b1b-9092-465a-abbe-2952c827cf1a)"><path d="M40.43,16.56H36.3V6.83A.85.85,0,0,0,36,6.11a22.47,22.47,0,0,0-30.8,0A.85.85,0,0,0,5,6.73V16.6H.85a.85.85,0,0,0-.85.85V26a.85.85,0,0,0,.85.85H5v8a.85.85,0,0,0,.31.66l14.81,12a.85.85,0,0,0,1.07,0L36,35.5a.85.85,0,0,0,.31-.66v-8h4.13a.85.85,0,0,0,.85-.85V17.41a.85.85,0,0,0-.83-.85M6.64,7.06c.3-.27.62-.52.93-.77v7.14a.5.5,0,0,0,1,0V5.53a20.68,20.68,0,0,1,24.07,0v7.9a.5.5,0,0,0,1,0V6.29c.31.25.62.49.92.76v9.5H6.64Zm28,27.36-14,11.33-14-11.33V26.83H20.21l-.91,2.52-3.58.12,2.83,2.2-1,3.44,3-2,3,2-1-3.44,2.83-2.2-3.58-.12-1-2.52H34.64Zm5-9.33H1.7V18.26h.94v4.92a.5.5,0,0,0,1,0V18.26h34v4.92a.5.5,0,0,0,1,0V18.26h.93Zm-6,6.74a.85.85,0,0,1-.11,1.2h0L21.19,43.33a.85.85,0,0,1-.54.2.88.88,0,0,1-.56-.2L7.71,33a.85.85,0,1,1,1-1.37l.08.07,11.84,9.87,11.84-9.88a.85.85,0,0,1,1.16.14m-13,5.9,11.84-9.9a.85.85,0,1,1,1.17,1.23l-.08.07L21.19,39.48a.85.85,0,0,1-.54.2.89.89,0,0,1-.56-.2L7.71,29.15A.86.86,0,1,1,8.8,27.83Zm12-16.06a.85.85,0,0,1-.85.85H9.52a.85.85,0,1,1,0-1.7H31.76a.85.85,0,0,1,.88.82s0,0,0,0M24.14,6.32l-2,1.53.69,2.4-2-1.42-2.07,1.4.69-2.4-2-1.53,2.5-.08.85-2.35.87,2.37Zm7.5,1.36-2,1.53.69,2.4-2.07-1.4-2.07,1.4.69-2.4-2-1.53,2.5-.08.85-2.35.85,2.35Zm-15,0-2,1.53.69,2.4-2.07-1.4-2.07,1.4.69-2.4-2-1.53,2.5-.08.85-2.35.85,2.35Z" transform="translate(0 0)" style="fill:#394679"/></g></g></g></svg>