<svg xmlns="http://www.w3.org/2000/svg" viewBox="0 0 33.99 25.01"><title>cart</title><path d="M33.89 6.13a.76.76 0 0 0-.55-.36L11 2.51a.77.77 0 0 0-.87.63.75.75 0 0 0 .64.85l21.4 3.12-3.56 9.36H12.89L6.56.48A.76.76 0 0 0 5.84 0H.76A.76.76 0 0 0 0 .75v1.5A.76.76 0 0 0 .76 3a.76.76 0 0 0 .76-.75V1.5h3.8l6.34 16a.76.76 0 0 0 .71.48h16.79a.76.76 0 0 0 .72-.49l4.06-10.72a.74.74 0 0 0-.05-.64zM16.36 18.35a3.33 3.33 0 1 0 3.39 3.33 3.36 3.36 0 0 0-3.39-3.33zm0 5.16a1.83 1.83 0 1 1 1.87-1.83 1.85 1.85 0 0 1-1.87 1.83zm8.82-5.16a3.33 3.33 0 1 0 3.39 3.33 3.36 3.36 0 0 0-3.4-3.33zm0 5.16A1.83 1.83 0 1 1 27 21.68a1.85 1.85 0 0 1-1.83 1.83z" fill="#314aac" data-name="Layer 1"/></svg>