<svg xmlns="http://www.w3.org/2000/svg" viewBox="0 0 62 62"><defs><clipPath id="a"><path fill="none" d="M0 0h62v62H0z"/></clipPath></defs><title>machine</title><g clip-path="url(#a)" fill="#394679" data-name="Layer 1"><path d="M60 42.41V37h2V8h-6V3a3 3 0 0 0-3-3H33a3 3 0 0 0-3 3v1a2 2 0 0 0-2 2v2h-4v6H0v30h6a5 5 0 0 0-1 3v10a5 5 0 0 0 10 0h7v5h6V46h11v16h6v-2l2.67 2h9.75L62 57.41V51h-4v-6.59zm-2-.83L56.59 43h-4.18L51 41.59V37h7zM45 51V34.31l2-2.91V37h2v5.41l2 2V51zm4-16v-3h7v-2h-7v-1.51L54.15 21H60v9h-2v2h2v3zm11-16h-4.47l.47-.69V14h-7v-4h11zM54 3v5h-7v6h-4V8h-4V6a2 2 0 0 0-2-2V2h16a1 1 0 0 1 1 1M37 30h-7v-6h7zm-9-8v8h-2V20h15v10h-2v-8zm4-19a1 1 0 0 1 1-1h2v2h-3zm-2 3h7v2h-7zm11 12H26v-8h15zm-30-2v2.31L14.22 23H2v-7zM2 35h12v-2H2v-8h13.6l2.4 3.49V33h-2v2h2v7H2zm20 12h-7a5 5 0 0 0-1-3h6V31.4l2 2.91zm-9 0v4H7v-4a3 3 0 0 1 6 0m-3 13a3 3 0 0 1-3-3v-4h6v4a3 3 0 0 1-3 3m5-11h7v6h-7zm26 11V44H26v16h-2V38h15v-2H24v-2.31l-11-16V16h11v16h19V16h11v1.69l-11 16V36h-2v2h2v22zm19-3.41L56.59 60h-8.26L45 57.5V53h15zM53 45h3v6h-3z"/><path d="M9 46h2v2H9zM9 56h2v2H9zM30 17a3 3 0 1 0-3-3 3 3 0 0 0 3 3m0-4a1 1 0 1 1-1 1 1 1 0 0 1 1-1M37 17a3 3 0 1 0-3-3 3 3 0 0 0 3 3m0-4a1 1 0 1 1-1 1 1 1 0 0 1 1-1"/></g></svg>