<svg xmlns="http://www.w3.org/2000/svg" viewBox="0 0 38.61 51"><title>marker</title><g data-name="Слой 1" fill="#fff" stroke="#fff" stroke-miterlimit="10"><path d="M19.3 50.5a1 1 0 0 1-.75-.34C17.81 49.31.5 29.39.5 19.29a18.8 18.8 0 0 1 37.61 0c0 10.1-17.31 30-18.05 30.87a1 1 0 0 1-.76.34zm0-48A16.82 16.82 0 0 0 2.5 19.29C2.5 27.52 15.94 44 19.3 48c3.36-4 16.8-20.44 16.8-28.67A16.82 16.82 0 0 0 19.3 2.5z"/><path d="M19.3 29.13a9.83 9.83 0 1 1 9.82-9.84 9.84 9.84 0 0 1-9.82 9.84zm0-17.66a7.83 7.83 0 1 0 7.82 7.82 7.83 7.83 0 0 0-7.82-7.82z"/></g></svg>