<svg xmlns="http://www.w3.org/2000/svg" viewBox="0 0 72.14 90"><defs><clipPath id="a"><path fill="none" d="M0 0h72.14v90H0z"/></clipPath></defs><title>microscope</title><g clip-path="url(#a)" fill="#394679" data-name="Layer 1"><path d="M4.63 90h61.92a4.63 4.63 0 0 0 4.63-4.62v-4.21a4.63 4.63 0 0 0-4.62-4.62H65l-7.55-10A31.08 31.08 0 0 0 41 9c-2.14 0-5.26.3-7 .49v-.37A4.11 4.11 0 0 0 30 5h-.5V1.5A1.5 1.5 0 0 0 28 0h-8.09a1.5 1.5 0 0 0-1.5 1.5V5h-.5a4.11 4.11 0 0 0-4.1 4.11v32.73a4.11 4.11 0 0 0 3.28 4v4.72a1.5 1.5 0 0 0 1.5 1.5h10.73a1.5 1.5 0 0 0 1.5-1.5v-4.7a4.11 4.11 0 0 0 3.28-4V21.33a41.07 41.07 0 0 1 7-1 19.72 19.72 0 0 1 9.5 37 7.83 7.83 0 0 0-5.77-2.51 8 8 0 0 0-.84 0 4.58 4.58 0 0 0-.5 0H8.23a4.81 4.81 0 1 0 0 9.62h25.36l-9.07 12.1H4.63A4.63 4.63 0 0 0 0 81.17v4.21A4.63 4.63 0 0 0 4.63 90M21.4 3h5.09v2H21.4zm6.41 46.08h-7.73v-3.14h7.74zm3.28-7.24a1.11 1.11 0 0 1-1.1 1.1h-5v-1h-2v1h-5a1.11 1.11 0 0 1-1.1-1.1V9.12A1.11 1.11 0 0 1 17.91 8h5v1h2V8h5a1.11 1.11 0 0 1 1.1 1.11zm32.68-1.74A22.75 22.75 0 0 0 41 17.38a40.75 40.75 0 0 0-7 .89v-5.75c1.53-.17 4.84-.5 7-.5a28.08 28.08 0 0 1 14.65 52.07l-3.25-4.32A22.87 22.87 0 0 0 63.77 40.1M8.23 61.49a1.81 1.81 0 0 1-1.29-3.08 1.84 1.84 0 0 1 1.29-.54h30.35l-.13.16-2.6 3.46H8.23zm32.62-1.66a4.91 4.91 0 0 1 7.85 0l12.56 16.71h-33zM3 81.17a1.63 1.63 0 0 1 1.62-1.62h61.93a1.63 1.63 0 0 1 1.63 1.63v4.21A1.63 1.63 0 0 1 66.55 87H4.63A1.63 1.63 0 0 1 3 85.38z"/><path d="M44.77 60.06A2.93 2.93 0 1 1 41.84 63a2.93 2.93 0 0 1 2.93-2.93M22.95 32.54h2v4.7h-2zM22.95 13.72h2v4.7h-2zM22.95 23.13h2v4.7h-2z"/></g></svg>