<svg xmlns="http://www.w3.org/2000/svg" viewBox="0 0 121.63 201.79"><defs><clipPath id="a" transform="translate(-65.56 -14.14)"><path transform="rotate(-45.17 115.08 115.07)" fill="none" d="M33.46 33.95h163.22v162.24H33.46z"/></clipPath></defs><title>phone-call</title><g clip-path="url(#a)" data-name="Layer 1"><path d="M37.84 2.64c44.6-13.72 44.6 29.35 32.6 54.44-6 13-12.5 14.58-22 13.12-19-1.92-18.93 63.19.1 61.1 9-1 16-.07 22.06 12.92 12.06 25 12.13 68.06-33 55.23-50.1-14.8-50.37-182.07.18-196.82m59.76 60.34c-4-4 2-10 6-6a61.66 61.66 0 0 1 .14 87.14c-4 4-10-2-6-6 21-21.13 20.95-54.18-.12-75.12M84.04 80.56c-4-4 2-10 6-6 14.55 14.46 15.09 38 .59 52.58-4 4-10-2-6-6 11-11.07 10.47-29.59-.57-40.56m-30.16-71c-20-.91-30 12.15-37 36.22-12 40.12-10.3 134.76 23.77 144.63 15.53 4.44 28 1.88 27-16.14-.52-10.51-5.06-34-13.58-33.49-10 0-13 4.06-23.05-10.92-8.54-12.49-8.6-44.54-.1-58.1 16-24.11 22 .9 31-19.17 4-7 14.46-41.63-8.08-43" fill="#fff"/></g></svg>