<svg xmlns="http://www.w3.org/2000/svg" viewBox="0 0 41.26 47.69"><defs><clipPath id="a"><path fill="none" d="M0 0h41.26v47.69H0z"/></clipPath></defs><title>shield</title><g clip-path="url(#a)" data-name="Layer 1"><path d="M40.43 16.56H36.3V6.83a.85.85 0 0 0-.3-.72 22.47 22.47 0 0 0-30.8 0 .85.85 0 0 0-.2.62v9.87H.85a.85.85 0 0 0-.85.85V26a.85.85 0 0 0 .85.85H5v8a.85.85 0 0 0 .31.66l14.81 12a.85.85 0 0 0 1.07 0L36 35.5a.85.85 0 0 0 .31-.66v-8h4.13a.85.85 0 0 0 .85-.85v-8.58a.85.85 0 0 0-.83-.85M6.64 7.06c.3-.27.62-.52.93-.77v7.14a.5.5 0 0 0 1 0v-7.9a20.68 20.68 0 0 1 24.07 0v7.9a.5.5 0 0 0 1 0V6.29c.31.25.62.49.92.76v9.5H6.64zm28 27.36l-14 11.33-14-11.33v-7.59h13.57l-.91 2.52-3.58.12 2.83 2.2-1 3.44 3-2 3 2-1-3.44 2.83-2.2-3.58-.12-1-2.52h13.84zm5-9.33H1.7v-6.83h.94v4.92a.5.5 0 0 0 1 0v-4.92h34v4.92a.5.5 0 0 0 1 0v-4.92h.93zm-6 6.74a.85.85 0 0 1-.11 1.2l-12.34 10.3a.85.85 0 0 1-.54.2.88.88 0 0 1-.56-.2L7.71 33a.85.85 0 1 1 1-1.37l.08.07 11.84 9.87 11.84-9.88a.85.85 0 0 1 1.16.14m-13 5.9l11.84-9.9a.85.85 0 1 1 1.17 1.23l-.08.07-12.37 10.35a.85.85 0 0 1-.54.2.89.89 0 0 1-.56-.2L7.71 29.15a.86.86 0 1 1 1.09-1.32zm12-16.06a.85.85 0 0 1-.85.85H9.52a.85.85 0 1 1 0-1.7h22.24a.85.85 0 0 1 .88.82m-8.5-15.32l-2 1.53.69 2.4-2-1.42-2.07 1.4.69-2.4-2-1.53 2.5-.08.85-2.35.87 2.37zm7.5 1.36l-2 1.53.69 2.4-2.07-1.4-2.07 1.4.69-2.4-2-1.53 2.5-.08.85-2.35.85 2.35zm-15 0l-2 1.53.69 2.4-2.07-1.4-2.07 1.4.69-2.4-2-1.53 2.5-.08.85-2.35.85 2.35z" fill="#394679"/></g></svg>